<svg width="80" height="80" viewBox="0 0 80 80" fill="none" xmlns="http://www.w3.org/2000/svg">
<path d="M77.6525 26.5181C78.4411 28.722 76.7065 30.9091 74.3662 30.9091H54.5323C52.5245 30.9091 50.8968 29.281 50.8968 27.2727V22.8874C50.8968 18.3634 45.7078 15.8058 42.1212 18.562L19.2615 36.1292C16.4203 38.3126 16.4203 42.5965 19.2615 44.7799L42.1212 62.3471C45.7078 65.1033 50.8968 62.5457 50.8968 58.0217V52.7273C50.8968 50.719 52.5245 49.0909 54.5323 49.0909H74.3662C76.7065 49.0909 78.4411 51.278 77.6525 53.4819C72.1209 68.9401 57.3469 80 39.9904 80C17.9043 80 0 62.0914 0 40C0 17.9086 17.9043 0 39.9904 0C57.3469 0 72.1209 11.0599 77.6525 26.5181Z" fill="#FF0012"/>
</svg>
