<?xml version="1.0" encoding="UTF-8"?>
<svg xmlns="http://www.w3.org/2000/svg" width="16" height="16" viewBox="0 0 16 16" fill="none">
    <path d="M15.7453 5.30362C15.9031 5.7444 15.5561 6.18182 15.0881 6.18182H11.1213C10.7197 6.18182 10.3942 5.85621 10.3942 5.45455L10.3942 4.57748C10.3942 3.67268 9.35641 3.16116 8.63909 3.7124L4.06714 7.22584C3.49891 7.66251 3.49891 8.51931 4.06714 8.95598L8.63909 12.4694C9.35641 13.0207 10.3942 12.5091 10.3942 11.6043L10.3942 10.5455C10.3942 10.1438 10.7197 9.81818 11.1213 9.81818H15.0881C15.5561 9.81818 15.9031 10.2556 15.7453 10.6964C14.639 13.788 11.6842 16 8.21293 16C3.79571 16 0.214844 12.4183 0.214844 8C0.214844 3.58172 3.79571 0 8.21293 0C11.6842 0 14.639 2.21197 15.7453 5.30362Z" fill="#FF0012"></path>
</svg>